<svg width="219" height="62" viewBox="0 0 219 62" fill="none" xmlns="http://www.w3.org/2000/svg">
<path d="M136.796 12.5928L132.241 27.3479H128.927L126.297 17.725L123.646 27.3479H120.353L115.774 12.5928H119.28L122.08 22.7934L124.88 12.5928H127.79L130.59 22.7934L133.368 12.5928H136.796Z" fill="#F0F0FF"/>
<path d="M148.013 22.9209H139.886C140.273 24.1402 141.318 24.8881 142.686 24.8881C143.927 24.8881 144.909 24.3103 145.422 23.6688L147.517 25.487C146.362 26.7914 144.607 27.603 142.598 27.603C139.135 27.603 136.526 25.122 136.526 21.8293C136.526 18.6216 139.028 16.1831 142.342 16.1831C145.614 16.1831 148.074 18.6216 148.074 21.9356C148.077 22.2369 148.056 22.6445 148.013 22.9209ZM139.865 20.8475H144.763C144.419 19.6282 143.48 18.8804 142.303 18.8804C141.127 18.8804 140.184 19.6495 139.865 20.8475Z" fill="#F0F0FF"/>
<path d="M165.652 11.9512V27.3479H162.53V26.2562C161.697 27.1104 160.563 27.6031 159.237 27.6031C156.242 27.6031 153.977 25.1433 153.977 21.8931C153.977 18.6429 156.246 16.1831 159.237 16.1831C160.563 16.1831 161.697 16.6758 162.53 17.53V11.9512H165.652ZM162.53 21.8966C162.53 20.3584 161.396 19.2029 159.857 19.2029C158.34 19.2029 157.206 20.3584 157.206 21.8966C157.206 23.4349 158.34 24.5904 159.857 24.5904C161.396 24.5904 162.53 23.4349 162.53 21.8966Z" fill="#F0F0FF"/>
<path d="M178.754 22.9209H170.63C171.017 24.1402 172.062 24.8881 173.43 24.8881C174.671 24.8881 175.656 24.3103 176.167 23.6688L178.261 25.487C177.106 26.7914 175.351 27.603 173.342 27.603C169.879 27.603 167.27 25.122 167.27 21.8293C167.27 18.6216 169.773 16.1831 173.087 16.1831C176.358 16.1831 178.818 18.6216 178.818 21.9356C178.818 22.2369 178.797 22.6445 178.754 22.9209ZM170.609 20.8475H175.507C175.167 19.6282 174.224 18.8804 173.048 18.8804C171.871 18.8804 170.928 19.6495 170.609 20.8475Z" fill="#F0F0FF"/>
<path d="M179.526 25.9587L180.979 23.949C181.812 24.6544 182.84 25.1258 184.102 25.1258C185.13 25.1258 185.835 24.828 185.835 24.2503C185.835 23.63 185.002 23.4174 183.889 23.1586C182.156 22.7723 179.87 22.2619 179.87 19.6958C179.87 17.3423 181.922 16.1904 184.403 16.1904C186.328 16.1904 187.717 16.8745 188.745 17.6224L187.292 19.632C186.48 19.0755 185.58 18.6715 184.513 18.6715C183.68 18.6715 182.996 18.9054 182.996 19.4619C182.996 20.0821 183.829 20.2735 184.942 20.511C186.654 20.8761 188.961 21.4077 188.961 23.9526C188.961 26.3486 186.866 27.6104 184.215 27.6104C182.135 27.6068 180.597 26.8341 179.526 25.9587Z" fill="#F0F0FF"/>
<path d="M190.102 13.1279C190.102 12.0363 190.935 11.2246 192.027 11.2246C193.14 11.2246 193.973 12.0363 193.973 13.1279C193.973 14.2409 193.14 15.0525 192.027 15.0525C190.939 15.0525 190.102 14.2409 190.102 13.1279ZM190.467 16.4419H193.59V27.3479H190.467V16.4419Z" fill="#F0F0FF"/>
<path d="M206.969 30.5557L203.762 31.4311C203.676 30.7258 203.077 30.2544 202.202 30.2544H198.803C196.687 30.2544 195.298 29.0352 195.298 27.2169C195.298 26.0614 195.875 24.9521 196.793 24.3956C195.897 23.5414 195.361 22.3434 195.361 20.9966C195.361 18.239 197.562 16.1869 200.515 16.1869C201.348 16.1869 202.117 16.357 202.805 16.637C203.127 15.4603 204.215 14.7124 205.714 14.7124H206.632V17.6011H205.863C205.349 17.6011 204.945 17.8562 204.835 18.2639C205.371 19.033 205.69 19.9545 205.69 21.0001C205.69 23.7576 203.464 25.8133 200.515 25.8133C199.958 25.8133 199.423 25.7495 198.909 25.6007C198.587 25.8133 198.417 26.1146 198.417 26.4336C198.417 26.9263 198.824 27.2453 199.402 27.2453H202.801C205.002 27.2417 206.562 28.461 206.969 30.5557ZM198.565 20.9966C198.565 22.0669 199.398 22.8573 200.511 22.8573C201.624 22.8573 202.478 22.0669 202.478 20.9966C202.478 19.9262 201.624 19.1358 200.511 19.1358C199.377 19.1393 198.565 19.9297 198.565 20.9966Z" fill="#F0F0FF"/>
<path d="M218.209 20.3337V27.348H215.086V21.3828C215.086 20.0572 214.253 19.203 212.97 19.203C211.645 19.203 210.727 20.0785 210.727 21.4253V27.348H207.604V16.442H210.727V17.5336C211.581 16.6582 212.694 16.1868 214.041 16.1868C216.54 16.1868 218.209 17.8349 218.209 20.3337Z" fill="#F0F0FF"/>
<path d="M127.644 36.9993L122.448 49.6597C121.827 51.2405 120.459 52.2258 118.939 52.2258C117.911 52.2258 116.716 51.797 115.944 51.1129L117.142 48.6744C117.464 48.9934 117.953 49.2096 118.425 49.2096C118.896 49.2096 119.321 48.9757 119.601 48.3979L119.92 47.7139L115.557 36.9993H119.13L121.654 43.9285L124.156 36.9993H127.644Z" fill="#F0F0FF"/>
<path d="M127.469 42.4539C127.469 39.2037 129.993 36.7439 133.35 36.7439C136.706 36.7439 139.23 39.2037 139.23 42.4539C139.23 45.704 136.706 48.1638 133.35 48.1638C129.993 48.1638 127.469 45.704 127.469 42.4539ZM136.022 42.4539C136.022 40.9156 134.888 39.7601 133.35 39.7601C131.811 39.7601 130.677 40.9156 130.677 42.4539C130.677 43.9921 131.811 45.1476 133.35 45.1476C134.888 45.1476 136.022 43.9921 136.022 42.4539Z" fill="#F0F0FF"/>
<path d="M140.634 43.5456V37.0027H143.756V43.1167C143.756 44.336 144.568 45.1476 145.787 45.1476C147.006 45.1476 147.818 44.336 147.818 43.1167V37.0027H150.941V43.5456C150.941 46.3243 148.91 48.1639 145.787 48.1639C142.686 48.1639 140.634 46.3243 140.634 43.5456Z" fill="#F0F0FF"/>
<path d="M159.6 36.8291V40.0367H159.129C157.225 40.0367 156.176 41.1284 156.176 42.8155V47.9052H153.053V36.9992H156.176V38.2398C156.945 37.343 157.952 36.8291 159.129 36.8291H159.6Z" fill="#F0F0FF"/>
<path d="M178.803 33.1499V47.9051H175.124L169.584 39.5865V47.9051H165.905V33.1499H169.584L175.124 41.4898V33.1499H178.803Z" fill="#F0F0FF"/>
<path d="M185.063 36.6165V38.9275H190.344V42.3903H185.063V47.9089H181.384V33.1501H191.155V36.6165H185.063Z" fill="#F0F0FF"/>
<path d="M203.581 36.6163H199.647V47.9086H195.968V36.6163H192.012V33.1499H203.581V36.6163Z" fill="#F0F0FF"/>
<path d="M89.6334 3.10083H88.9246V59.4561H89.6334V3.10083Z" fill="#F0F0FF"/>
<path d="M62.9765 33.6072L60.0453 22.6622C59.7512 21.5635 58.7552 20.8014 57.6175 20.8014H47.5586L36.649 1.9029C36.1989 1.12668 35.3695 0.648193 34.4692 0.648193H15.9358C15.5778 0.648193 15.2376 0.789968 14.9824 1.04162L6.97211 9.05541C6.16754 9.85998 6.0045 11.1041 6.5716 12.0894L11.6046 20.8014L0.695049 39.6964C0.24846 40.4762 0.24846 41.4331 0.695049 42.2093L9.96355 58.2617C10.1443 58.5737 10.4349 58.7969 10.7788 58.8891L21.7237 61.8203C22.8225 62.1145 23.9815 61.636 24.5486 60.6506L29.578 51.9386L51.3971 51.9351C52.2938 51.9351 53.1232 51.4566 53.5733 50.6804L62.8418 34.628C63.0191 34.3196 63.0687 33.951 62.9765 33.6072ZM51.032 48.7877H27.7633L22.0675 58.6516L12.317 56.0394L3.60497 40.9546L15.2411 20.8014L9.54531 10.9375L16.6837 3.79913H34.1042L45.7368 23.9524H57.1283L59.7405 33.7029L51.032 48.7877Z" fill="#F0F0FF"/>
<path d="M54.7106 27.0998H43.918L32.2854 6.94653H17.9875L13.479 11.455L18.8771 20.8014L7.24097 40.9511L14.3899 53.3351L20.5465 54.9832L25.941 45.6368H49.2097L56.3587 33.2528L54.7106 27.0998ZM47.3915 42.4894H24.1263L19.0295 51.3184L16.4705 50.6343L10.881 40.9547L22.5172 20.805L17.4168 11.9724L19.2918 10.0975H30.4671L42.0997 30.2507H52.2933L52.9774 32.8097L47.3915 42.4894Z" fill="#F0F0FF"/>
<path d="M49.0049 33.3982L45.574 39.3386H22.3053L17.9457 46.8916L14.5183 40.9512L26.1509 20.8016L21.7913 13.2485H28.6497L40.2823 33.3982H49.0049Z" fill="#F0F0FF"/>
</svg>
