<svg width="80" height="108" viewBox="0 0 80 108" fill="none" xmlns="http://www.w3.org/2000/svg">
<path d="M30.5885 36.4254C25.4859 31.3326 25.4566 0.74707 25.4566 0.74707C25.4566 0.74707 25.4859 31.3324 20.3932 36.4345C15.2995 41.537 0.00708008 41.5511 0.00708008 41.5511C0.00708008 41.5511 15.2995 41.5369 20.4021 46.6295C25.5046 51.7223 25.534 82.3078 25.534 82.3078C25.534 82.3078 25.5046 51.7225 30.5974 46.6204C35.6901 41.5179 50.9826 41.5038 50.9826 41.5038C50.9826 41.5038 35.6901 41.518 30.5885 36.4263V36.4254Z" fill="#A851F1"/>
<path d="M66.8302 63.7883C63.6415 60.606 63.6228 41.4893 63.6228 41.4893C63.6228 41.4893 63.6424 60.6051 60.4582 63.7938C57.2759 66.9834 47.718 66.9922 47.718 66.9922C47.718 66.9922 57.2759 66.9834 60.4646 70.1657C63.6542 73.3489 63.672 92.4647 63.672 92.4647C63.672 92.4647 63.6542 73.3489 66.8365 70.1593C70.0198 66.9706 79.5777 66.9608 79.5777 66.9608C79.5777 66.9599 70.0198 66.9715 66.8302 63.7883Z" fill="#A851F1"/>
<path d="M43.3816 90.5753C41.4677 88.6659 41.4571 77.1968 41.4571 77.1968C41.4571 77.1968 41.4669 88.6658 39.5583 90.579C37.648 92.4929 31.9133 92.4982 31.9133 92.4982C31.9133 92.4982 37.6478 92.4929 39.5608 94.4023C41.4738 96.3126 41.4853 107.782 41.4853 107.782C41.4853 107.782 41.4738 96.3128 43.3841 94.398C45.2936 92.485 51.0282 92.4788 51.0282 92.4788C51.0273 92.4788 45.2946 92.4859 43.3814 90.5755L43.3816 90.5753Z" fill="#A851F1"/>
</svg>
