<svg width="74" height="73" viewBox="0 0 74 73" fill="none" xmlns="http://www.w3.org/2000/svg">
<path d="M72.7941 36.5445C72.7941 16.8037 56.7374 0.74707 37.0516 0.747069C17.3657 0.747068 1.3091 16.8037 1.3091 36.5445C1.3091 56.2854 17.3657 72.342 37.0516 72.342C56.7374 72.342 72.7941 56.2854 72.7941 36.5445ZM1.85898 36.5445C1.85899 17.0786 17.6407 1.29695 37.0516 1.29695C56.4625 1.29695 72.2442 17.1336 72.2442 36.5445C72.2442 56.0105 56.4625 71.7921 37.0516 71.7921C17.6407 71.7921 1.85898 56.0104 1.85898 36.5445Z" fill="white" stroke="white"/>
<path d="M53.1632 40.0634L53.1632 39.5136C45.6848 39.5136 39.4161 44.6275 37.5465 51.501L37.5465 17.4082L36.9966 17.4082L36.9966 54.4154C36.3367 46.0572 29.4082 39.5136 20.885 39.5136L20.885 40.0634C29.4632 40.0634 36.5017 47.102 36.5017 55.6802L37.0516 55.6802L37.6015 55.6802C37.6015 47.047 44.585 40.0634 53.1632 40.0634Z" fill="white" stroke="white"/>
</svg>
