<svg width="61" height="68" viewBox="0 0 61 68" fill="none" xmlns="http://www.w3.org/2000/svg">
<path d="M40.4136 41.9132C43.2974 46.2008 60.6167 46.2254 60.6167 46.2254C60.6167 46.2254 43.2975 46.2008 40.4084 50.4802C37.519 54.7603 37.5111 67.6104 37.5111 67.6104C37.5111 67.6104 37.5191 54.7603 34.6353 50.4727C31.7515 46.1851 14.4322 46.1604 14.4322 46.1604C14.4322 46.1604 31.7514 46.1851 34.6405 41.9057C37.5299 37.6263 37.5379 24.7763 37.5379 24.7763C37.5379 24.7763 37.5298 37.6263 40.4131 41.9132L40.4136 41.9132Z" fill="#A851F1"/>
<path d="M24.9196 11.4588C26.7216 14.1383 37.5466 14.1539 37.5466 14.1539C37.5466 14.1539 26.7221 14.1375 24.9165 16.8131C23.1104 19.4872 23.1054 27.5186 23.1054 27.5186C23.1054 27.5186 23.1104 19.4872 21.3084 16.8077C19.5058 14.1276 8.68133 14.1126 8.68133 14.1126C8.68133 14.1126 19.5058 14.1276 21.312 11.4535C23.1176 8.77865 23.1231 0.747255 23.1231 0.747255C23.1236 0.747255 23.1171 8.77864 24.9196 11.4588Z" fill="#A851F1"/>
<path d="M9.75039 31.1626C10.8316 32.7709 17.3261 32.7798 17.3261 32.7798C17.3261 32.7798 10.8317 32.7716 9.74833 34.3753C8.66456 35.9806 8.66155 40.7993 8.66155 40.7993C8.66155 40.7993 8.66457 35.9807 7.58332 34.3732C6.50158 32.7658 0.0070859 32.7561 0.0070859 32.7561C0.0070859 32.7561 6.50152 32.7658 7.58577 31.1605C8.66902 29.5561 8.67255 24.7373 8.67255 24.7373C8.67255 24.7381 8.66853 29.5552 9.75027 31.1628L9.75039 31.1626Z" fill="#A851F1"/>
</svg>
